#!OML:ASF G:\ViconDB\ViconDB\414\test\team2\shane.ASF
:FULLY-SPECIFIED
:DEGREES
131
root 1.60727 16.398 -2.12176 -7.68394 -7.34455 -7.44183
lowerback 10.4101 7.10179 10.1298
upperback 1.61163 10.5696 0.547369
thorax -2.3635 5.19802 -6.14741
lowerneck -12.9312 -9.30225 -7.46631
upperneck 18.7052 -13.3969 9.76786
head 9.18768 -5.88229 2.86383
rclavicle -1.88119e-013 1.23246e-014
rhumerus -1.03861 21.3123 -87.6211
rradius 99.6232
rwrist 31.2511
rhand -43.2982 -24.1397
rfingers 7.12502
rthumb -16.1456 -53.4872
lclavicle -1.88119e-013 1.23246e-014
lhumerus -56.5628 -16.7851 53.2855
lradius 16.9937
lwrist -15.3028
lhand -34.4976 8.9904
lfingers 7.12502
lthumb -7.65988 38.8317
rfemur 36.4259 -10.178 20.0553
rtibia 6.36111e-014
rfoot -15.5864 18.5204
rtoes -17.8973
lfemur -24.0226 11.566 -9.57852
ltibia 37.027
lfoot -29.1329 -13.2441
ltoes -11.5731
132
root 1.61875 16.3692 -1.87652 -7.61121 -7.38893 -7.54077
lowerback 10.11 7.09751 10.2248
upperback 1.55076 10.5407 0.448079
thorax -2.23182 5.19016 -6.25577
lowerneck -12.9251 -9.29191 -7.50132
upperneck 18.6772 -13.4447 10.0746
head 9.20847 -5.87796 2.96613
rclavicle 4.80438e-014 2.38542e-014
rhumerus -1.50383 21.4635 -87.5979
rradius 99.6186
rwrist 31.7455
rhand -43.2592 -24.8561
rfingers 7.12502
rthumb -16.1079 -54.2066
lclavicle 4.80438e-014 2.38542e-014
lhumerus -56.5951 -16.9196 53.1103
lradius 17.1734
lwrist -14.7081
lhand -34.2842 9.11704
lfingers 7.12502
lthumb -7.45386 38.9657
rfemur 37.1463 -9.72888 20.0511
rtibia 9.54166e-015
rfoot -14.704 18.4094
rtoes -18.9482
lfemur -23.4972 11.5642 -9.73556
ltibia 37.6099
lfoot -28.8065 -14.1999
ltoes -11.5714
133
root 1.646 16.357 -1.62954 -7.5634 -7.71069 -7.84297
lowerback 10.0994 7.13714 10.708
upperback 1.35254 10.6556 0.40156
thorax -2.31993 5.23113 -6.57827
lowerneck -12.9144 -9.2193 -7.27425
upperneck 18.8732 -13.3958 9.99193
head 9.24652 -5.84259 2.91019
rclavicle -5.74208e-014 -1.59028e-015
rhumerus -2.52279 21.7075 -87.7343
rradius 99.6659
rwrist 31.2542
rhand -43.4625 -24.8171
rfingers 7.12502
rthumb -16.3037 -54.1517
lclavicle -5.74208e-014 -1.59028e-015
lhumerus -56.7395 -17.0703 52.9656
lradius 16.9904
lwrist -15.4821
lhand -34.4622 8.66456
lfingers 7.12502
lthumb -7.62573 38.5071
rfemur 37.8565 -9.01754 20.2511
rtibia -9.54166e-015
rfoot -13.5346 18.3807
rtoes -20.4737
lfemur -22.8572 11.2841 -9.49803
ltibia 38.1404
lfoot -27.8049 -15.3179
ltoes -10.7952
134
root 1.65264 16.3642 -1.37275 -7.4316 -7.77029 -7.80897
lowerback 9.68828 7.1216 10.3987
upperback 1.24369 10.5622 0.416639
thorax -2.28465 5.18572 -6.34336
lowerneck -12.8759 -9.15517 -7.45178
upperneck 18.9878 -13.3219 10.1555
head 9.29733 -5.80287 3.00572
rclavicle -1.64686e-013 -1.11319e-014
rhumerus -3.47604 22.12 -87.7839
rradius 99.5065
rwrist 30.974
rhand -43.3891 -24.9443
rfingers 7.12502
rthumb -16.233 -54.2847
lclavicle -1.64686e-013 -1.11319e-014
lhumerus -56.8203 -16.7883 53.0071
lradius 16.8109
lwrist -15.8128
lhand -34.6347 8.5669
lfingers 7.12502
lthumb -7.79217 38.4033
rfemur 38.4239 -8.53178 20.1299
rtibia 0
rfoot -12.1611 18.3959
rtoes -21.8428
lfemur -22.5879 10.3499 -9.56414
ltibia 38.608
lfoot -25.6751 -14.7776
ltoes -9.52587
135
root 1.66566 16.3727 -1.11784 -7.39968 -7.83475 -7.72125
lowerback 9.50952 7.05782 10.2437
upperback 1.09509 10.4468 0.276
thorax -2.36464 5.12027 -6.38862
lowerneck -12.6988 -9.06335 -7.16513
upperneck 18.8719 -13.2444 10.122
head 9.19407 -5.76097 2.96842
rclavicle -1.64686e-013 -1.11319e-014
rhumerus -3.47604 22.12 -87.7839
rradius 99.5065
rwrist 30.974
rhand -43.3891 -24.9443
rfingers 7.12502
rthumb -16.233 -54.2847
lclavicle -6.06883e-014 -2.70347e-014
lhumerus -56.7763 -16.2476 52.6739
lradius 16.5229
lwrist -16.9801
lhand -34.8786 8.40745
lfingers 7.12502
lthumb -8.02757 38.235
rfemur 39.0191 -8.02557 19.9256
rtibia -4.13472e-014
rfoot -10.2314 18.4634
rtoes -23.6236
lfemur -22.199 9.70664 -9.68573
ltibia 38.9935
lfoot -23.6158 -13.2225
ltoes -7.8907
136
root 1.67362 16.3811 -0.863615 -7.4501 -7.88911 -7.60639
lowerback 9.47255 6.9824 9.92593
upperback 0.90391 10.3193 0.159038
thorax -2.60278 5.03896 -6.35008
lowerneck -12.5792 -8.96328 -6.95689
upperneck 18.998 -13.1771 10.1522
head 9.19665 -5.71348 2.9607
rclavicle -1.64686e-013 -1.11319e-014
rhumerus -3.47604 22.12 -87.7839
rradius 99.5065
rwrist 30.974
rhand -43.3891 -24.9443
rfingers 7.12502
rthumb -16.233 -54.2847
lclavicle -1.56667e-014 2.54444e-014
lhumerus -56.8945 -16.0288 53.0274
lradius 16.4194
lwrist -16.3857
lhand -34.8712 8.47106
lfingers 7.12502
lthumb -8.0205 38.2989
rfemur 39.6323 -7.55315 19.7314
rtibia 3.18055e-014
rfoot -8.00202 18.3912
rtoes -24.8683
lfemur -21.4713 8.62632 -9.68908
ltibia 39.3392
lfoot -22.5775 -11.0169
ltoes -8.17457
137
root 1.69498 16.3825 -0.624751 -7.53382 -7.80779 -7.30591
lowerback 9.46966 6.90267 9.64897
upperback 0.851959 10.1832 0.017947
thorax -2.70105 4.96711 -6.34803
lowerneck -12.7261 -8.91517 -7.04385
upperneck 19.1595 -13.1416 10.3145
head 9.295 -5.67678 3.0285
rclavicle -1.64686e-013 -1.11319e-014
rhumerus -3.47604 22.12 -87.7839
rradius 99.5065
rwrist 30.974
rhand -43.3891 -24.9443
rfingers 7.12502
rthumb -16.233 -54.2847
lclavicle 5.74363e-014 -1.19271e-014
lhumerus -56.4773 -15.3349 53.1997
lradius 15.8041
lwrist -18.1543
lhand -35.2158 8.9891
lfingers 7.12502
lthumb -8.35304 38.8039
rfemur 40.1333 -7.13084 19.2261
rtibia -6.99722e-014
rfoot -4.82876 18.2863
rtoes -26.1197
lfemur -20.6943 8.37709 -10.0878
ltibia 39.6777
lfoot -21.6759 -9.55856
ltoes -8.37705
138
root 1.70442 16.3973 -0.386025 -7.63417 -7.68177 -6.9251
lowerback 9.40526 6.77467 9.06554
upperback 0.824961 9.94653 -0.0391817
thorax -2.82215 4.84819 -6.08042
lowerneck -12.8383 -8.84551 -7.33776
upperneck 19.3804 -13.058 10.5533
head 9.42322 -5.62446 3.16442
rclavicle -1.64686e-013 -1.11319e-014
rhumerus -3.47604 22.12 -87.7839
rradius 99.5065
rwrist 30.974
rhand -43.3891 -24.9443
rfingers 7.12502
rthumb -16.233 -54.2847
lclavicle 9.68703e-014 7.95139e-016
lhumerus -55.8355 -14.0499 53.3123
lradius 15.2779
lwrist -18.1942
lhand -35.053 8.48374
lfingers 7.12502
lthumb -8.19595 38.3048
rfemur 40.5386 -6.78589 18.7081
rtibia -6.04305e-014
rfoot -1.33959 18.0083
rtoes -27.4885
lfemur -19.9628 8.3719 -10.5014
ltibia 40.0095
lfoot -21.1439 -9.8107
ltoes -7.9754
139
root 1.71278 16.4159 -0.150766 -7.79365 -7.66146 -6.55707
lowerback 9.2344 6.68329 8.41029
upperback 0.937707 9.73441 -0.0880954
thorax -2.74228 4.75852 -5.73727
lowerneck -12.9741 -8.77288 -7.47494
upperneck 19.3967 -12.9681 10.748
head 9.46975 -5.56782 3.26099
rclavicle -1.64686e-013 -1.11319e-014
rhumerus -3.47604 22.12 -87.7839
rradius 99.5065
rwrist 30.974
rhand -43.3891 -24.9443
rfingers 7.12502
rthumb -16.233 -54.2847
lclavicle 1.57201e-013 3.97569e-015
lhumerus -55.0298 -12.434 53.1256
lradius 14.5593
lwrist -21.0318
lhand -35.3147 8.40411
lfingers 7.12502
lthumb -8.44851 38.2151
rfemur 40.8838 -6.34177 18.2139
rtibia -6.36111e-015
rfoot 2.58171 17.7025
rtoes -28.5996
lfemur -19.1341 8.73574 -10.8825
ltibia 40.2372
lfoot -21.0023 -10.8182
ltoes -7.62985
140
root 1.72046 16.4344 0.0733286 -7.94034 -7.53957 -6.24571
lowerback 9.26274 6.56935 8.08022
upperback 1.01231 9.54437 -0.211622
thorax -2.74019 4.67018 -5.67549
lowerneck -13.1908 -8.73904 -7.72538
upperneck 19.4736 -12.9452 11.0873
head 9.57855 -5.53063 3.4132
rclavicle -1.64686e-013 -1.11319e-014
rhumerus -3.47604 22.12 -87.7839
rradius 99.5065
rwrist 30.974
rhand -43.3891 -24.9443
rfingers 7.12502
rthumb -16.233 -54.2847
lclavicle 2.17669e-014 1.51076e-014
lhumerus -54.1881 -11.3461 53.6236
lradius 14.0161
lwrist -23.0561
lhand -35.4356 8.19773
lfingers 7.12502
lthumb -8.56519 38.004
rfemur 35.7911 -6.2249 17.5595
rtibia 11.922
rfoot -0.0527378 18.3956
rtoes -29.1407
lfemur -18.3361 9.49039 -11.2271
ltibia 40.3756
lfoot -20.8983 -11.9359
ltoes -6.41292
141
root 1.72499 16.4585 0.297669 -8.20617 -7.48689 -5.7972
lowerback 9.31123 6.49999 7.47157
upperback 1.15445 9.3837 -0.35032
thorax -2.71462 4.6021 -5.47906
lowerneck -13.4012 -8.72656 -7.82376
upperneck 19.5193 -12.9467 11.2776
head 9.65601 -5.50988 3.48688
rclavicle -1.64686e-013 -1.11319e-014
rhumerus -3.47604 22.12 -87.7839
rradius 99.5065
rwrist 30.974
rhand -43.3891 -24.9443
rfingers 7.12502
rthumb -16.233 -54.2847
lclavicle -3.00413e-014 -9.54166e-015
lhumerus -53.2583 -10.1651 54.1434
lradius 13.7086
lwrist -24.9142
lhand -35.2949 8.17328
lfingers 7.12502
lthumb -8.42941 37.9851
rfemur 32.7371 -6.27666 16.5646
rtibia 19.3955
rfoot 0.100396 19.0034
rtoes -28.499
lfemur -17.2445 10.0457 -11.6612
ltibia 40.3487
lfoot -21.2052 -12.0572
ltoes -6.66159
142
root 1.73564 16.4908 0.517223 -8.33831 -7.4186 -5.59062
lowerback 9.24432 6.28749 7.11483
upperback 1.29336 9.05436 -0.348724
thorax -2.63398 4.44914 -5.24435
lowerneck -13.6448 -8.51346 -7.90887
upperneck 19.5992 -12.6308 11.3152
head 9.70385 -5.35447 3.55373
rclavicle -1.64686e-013 -1.11319e-014
rhumerus -3.47604 22.12 -87.7839
rradius 99.5065
rwrist 30.974
rhand -43.3891 -24.9443
rfingers 7.12502
rthumb -16.233 -54.2847
lclavicle 7.51655e-015 -1.59028e-014
lhumerus -52.7017 -9.03013 55.2647
lradius 13.5749
lwrist -26.44
lhand -35.3943 7.76522
lfingers 7.12502
lthumb -8.52527 37.5731
rfemur 30.1832 -6.34877 15.9229
rtibia 25.3068
rfoot 1.13721 19.4864
rtoes -28.2829
lfemur -16.2617 10.7702 -11.8137
ltibia 40.1651
lfoot -21.5015 -12.5707
ltoes -6.48607
143
root 1.74263 16.5184 0.731812 -8.51737 -7.37793 -5.18155
lowerback 9.35769 6.13628 6.72618
upperback 1.36289 8.81383 -0.535427
thorax -2.68475 4.33254 -5.22102
lowerneck -13.7041 -8.40307 -7.99186
upperneck 19.5971 -12.4892 11.465
head 9.71564 -5.27815 3.63902
rclavicle 5.23798e-014 3.18055e-015
rhumerus -18.1788 24.3587 -91.9001
rradius 89.4854
rwrist 31.9522
rhand -42.7038 -21.8624
rfingers 7.12502
rthumb -15.5731 -51.2554
lclavicle 5.23798e-014 3.18055e-015
lhumerus -52.1574 -8.79402 56.9001
lradius 13.6461
lwrist -27.2565
lhand -35.4569 7.68839
lfingers 7.12502
lthumb -8.58567 37.4938
rfemur 27.8737 -6.59557 14.9201
rtibia 30.5017
rfoot 2.98071 19.6927
rtoes -26.3129
lfemur -15.0782 11.4261 -12.1934
ltibia 39.7947
lfoot -21.8946 -13.2173
ltoes -5.86191
144
root 1.75132 16.5591 0.949385 -8.62149 -7.32835 -4.68557
lowerback 9.3177 5.95588 6.11278
upperback 1.44089 8.50411 -0.626326
thorax -2.69732 4.18488 -4.9508
lowerneck -13.9128 -8.12475 -7.86753
upperneck 19.7093 -12.0679 11.2322
head 9.72197 -5.08693 3.59594
rclavicle 1.53934e-014 7.95139e-016
rhumerus -19.9769 24.7681 -92.5308
rradius 87.3354
rwrist 31.4749
rhand -42.3334 -21.206
rfingers 7.12502
rthumb -15.2164 -50.6264
lclavicle 1.53934e-014 7.95139e-016
lhumerus -51.6423 -8.5529 59.0712
lradius 13.6447
lwrist -26.9588
lhand -35.955 6.94292
lfingers 7.12502
lthumb -9.06639 36.7281
rfemur 25.6177 -6.67365 13.9312
rtibia 35.2199
rfoot 5.61322 19.5734
rtoes -23.0325
lfemur -13.9048 11.776 -12.7113
ltibia 39.291
lfoot -22.2449 -13.4419
ltoes -5.46058
